<svg xmlns="http://www.w3.org/2000/svg" viewBox="0 0 27 27"><g id="Ebene_2" data-name="Ebene 2"><g id="Ebene_1-2" data-name="Ebene 1"><path fill="#888" d="M1,8.33A13.5,13.5,0,1,0,27,13.5,13.5,13.5,0,0,0,1,8.33Zm24.78,3.08a12.33,12.33,0,0,1-5,12.23l-.79.55V20.65l1.67-2.5a1.39,1.39,0,0,0,.23-.58,1.44,1.44,0,0,0,0-.62L21,13.38V11h4.74ZM7,2.84l.25-.15a12.45,12.45,0,0,1,18,6.64l.24.67H20v3.44l1,4-2,2.94v4.36l-.29.14A12.48,12.48,0,0,1,13.5,26h0L13,26l-.14-.39L12,20.14,7,18.16V13.81L10.62,12H17V5H12.19l-1,2H7ZM5.17,4.21,6,3.47v3A1.5,1.5,0,0,0,7.5,8h3.38a1.27,1.27,0,0,0,.79-.22,1.57,1.57,0,0,0,.56-.61L12.81,6H16v5H10.74a1.38,1.38,0,0,0-.67.16L6.83,12.78a1.39,1.39,0,0,0-.6.55,1.48,1.48,0,0,0-.23.79v3.7a1.49,1.49,0,0,0,.26.84,1.61,1.61,0,0,0,.68.56l4.11,1.64.85,5.05-.71-.13A12.54,12.54,0,0,1,1,13.5H1A12.44,12.44,0,0,1,5.17,4.21Z"/></g></g></svg>