<?xml version="1.0" encoding="UTF-8"?><svg id="Icons" xmlns="http://www.w3.org/2000/svg" xmlns:xlink="http://www.w3.org/1999/xlink" viewBox="0 0 100 100"><defs><style>.cls-1{fill:none;}.cls-1,.cls-2{stroke-width:0px;}.cls-2{fill:#fff;}.cls-3{clip-path:url(#clippath);}</style><clipPath id="clippath"><rect class="cls-1" x="10.3" y="21.47" width="81.01" height="54.4"/></clipPath></defs><g class="cls-3"><path class="cls-2" d="m86.87,69.17c0,1.23-1.01,2.23-2.23,2.23H16.96c-1.23,0-2.22-.99-2.22-2.22V31.53h.01s23.09,16.94,23.09,16.94l-16.6,12.72c-.8.61-1.18,1.69-.81,2.63s1.22,1.44,2.08,1.44c.47,0,.94-.15,1.34-.46l17.74-13.59,7.91,5.8c.07.05,1.03.75,1.03.75.18.14.44.14.62,0,.42-.35,1.14-.95,1.37-1.14l7.06-5.18,18.23,13.97c.4.31.87.46,1.34.46.67,0,1.33-.3,1.77-.88.74-.98.55-2.38-.42-3.13l-17.18-13.16,23.53-17.26c.02.19.02.31.02.34v37.41ZM19.31,26.17c.1,0,.2,0,.3,0,2.34.13,11.96.04,23.1-.07,15.42-.15,34.6-.33,38.19.06,1.68.18,2.87.7,3.74,1.35l-33.91,24.88L16.52,27.3h0c.75-.76,1.66-1.12,2.79-1.12m62.06-4.44c-3.84-.41-22.36-.24-38.7-.08-10.6.1-20.62.19-22.82.08-2.45-.14-4.63.64-6.31,2.25-.6.58-3.51,2.92-3.24,7.8v37.41c0,3.69,2.99,6.7,6.66,6.7h67.69c3.67,0,6.66-3.01,6.66-6.7V31.77c0-3.1-2.08-9.19-9.94-10.04"/></g></svg>