<?xml version="1.0" encoding="UTF-8"?><svg id="Icons" xmlns="http://www.w3.org/2000/svg" xmlns:xlink="http://www.w3.org/1999/xlink" viewBox="0 0 100 100"><defs><style>.cls-1{fill:none;}.cls-1,.cls-2{stroke-width:0px;}.cls-2{fill:#fff;}.cls-3{clip-path:url(#clippath);}</style><clipPath id="clippath"><rect class="cls-1" x="26.48" y="23.3" width="49.83" height="50.94"/></clipPath></defs><g class="cls-3"><path class="cls-2" d="m74.12,74.24c-.54,0-1.08-.2-1.51-.6l-15.18-14.43c-3.28,2.29-7.17,3.52-11.25,3.52-5.26,0-10.21-2.05-13.94-5.78-3.72-3.72-5.78-8.67-5.78-13.94s2.05-10.22,5.78-13.94c7.69-7.69,20.19-7.68,27.88,0h0c3.72,3.72,5.77,8.67,5.77,13.94,0,4.97-1.83,9.66-5.16,13.3l14.89,14.15c.88.83.91,2.22.08,3.09-.43.45-1.01.68-1.58.68Zm-27.93-46.56c-4.1,0-7.95,1.59-10.84,4.49-2.9,2.9-4.49,6.75-4.49,10.85s1.6,7.95,4.49,10.84c2.9,2.9,6.75,4.49,10.84,4.49s7.95-1.6,10.85-4.49c2.9-2.9,4.49-6.75,4.49-10.84s-1.59-7.95-4.49-10.84h0c-2.9-2.9-6.75-4.49-10.85-4.49Z"/></g></svg>