<?xml version="1.0" encoding="UTF-8"?><svg id="Icons" xmlns="http://www.w3.org/2000/svg" xmlns:xlink="http://www.w3.org/1999/xlink" viewBox="0 0 100 100"><defs><style>.cls-1{fill:none;}.cls-1,.cls-2{stroke-width:0px;}.cls-2{fill:#fff;}.cls-3{clip-path:url(#clippath);}</style><clipPath id="clippath"><rect class="cls-1" x="10.73" y="9.7" width="78.43" height="78.43"/></clipPath></defs><g class="cls-3"><path class="cls-2" d="m79.88,83.15c-.17,0-.35,0-.52,0-12.7,0-28.08-7.58-40.66-20.16-.46-.46-.91-.92-1.36-1.39-.03-.03-.05-.05-.08-.08-.47-.45-.93-.9-1.39-1.36-12.76-12.76-20.37-28.38-20.16-41.19,5.6-2.33,11.42-3.75,17.32-4.22,4.77,5.65,7.11,10.6,8.27,17.52l-7.25,7.25c-.54.54-.81,1.31-.71,2.07.04.32,1.06,7.97,7.75,14.66.25.25.51.5.77.74.24.26.49.52.74.77,6.69,6.69,14.33,7.71,14.66,7.75.76.1,1.53-.17,2.07-.71l7.25-7.24c6.92,1.16,11.87,3.49,17.52,8.27-.47,5.91-1.88,11.72-4.22,17.32m-13.82-30.71c-.78-.11-1.56.15-2.11.7l-7.2,7.2c-2.04-.5-6.53-2.01-10.62-6.1-.23-.23-.45-.47-.67-.7-.05-.05-.09-.1-.14-.14-.24-.22-.47-.44-.7-.67-4.06-4.06-5.58-8.58-6.1-10.63l7.19-7.19c.55-.56.82-1.34.7-2.11-1.28-8.91-4.21-15.15-10.44-22.25-.51-.57-1.25-.89-2.01-.84-7.43.42-14.73,2.22-21.69,5.33-.84.38-1.41,1.19-1.47,2.11-.96,14.46,7.3,32.29,21.54,46.54.47.47.95.94,1.43,1.4.46.48.92.96,1.4,1.43,13.5,13.5,30.22,21.62,44.23,21.62.78,0,1.54-.03,2.3-.08.92-.06,1.73-.63,2.11-1.47,3.12-6.96,4.91-14.26,5.33-21.69.04-.76-.27-1.51-.84-2.01-7.09-6.24-13.33-9.16-22.25-10.44"/></g></svg>